<svg xmlns="http://www.w3.org/2000/svg" viewBox="0 0 474 420" width="474" height="420"><defs><style>.cls-1{fill:#00d8ff;}.cls-2{fill: #fff;}</style></defs><title>Icon4</title><g id="Layer_2" data-name="Layer 2"><g id="Layer_1-2" data-name="Layer 1"><g id="react4"><path class="cls-1" d="M237,133.32c61.3,0,118.7,9.2,161.55,26,36.9,14.52,59,33.33,59,50.3s-22.14,36-59,50.3c-42.85,16.77-100.25,26-161.55,26s-118.7-9.2-161.55-26c-36.9-14.52-59-33.33-59-50.3s22.14-36,59-50.3c42.85-16.56,100.25-26,161.55-26M237,117C106.2,117,0,158.47,0,209.8s106,92.83,237,92.83c130.8,0,237-41.51,237-92.83S367.8,117,237,117Z"/><path class="cls-1" d="M334.59,16.36a24.12,24.12,0,0,1,12.51,3.07c14.76,8.59,20.09,37,14.15,76.07C354.47,140.89,333.77,195.07,303,248c-58.43,100.81-128.14,155.4-164,155.4a24.12,24.12,0,0,1-12.51-3.07c-14.76-8.59-20.09-37-14.15-76.07,6.77-45.39,27.47-99.58,58.22-152.54,58.43-101,128.14-155.4,164-155.4m0-16.36C286.82,0,212.81,66,156.43,163.58,91,276.66,74,388.92,118.5,414.68A41.6,41.6,0,0,0,139.21,420C187,420,261,354,317.37,256.42c65.4-113.08,82.42-225.34,37.93-251.1C349.35,1.64,342.17,0,334.59,0Z"/><path class="cls-2" d="M139.21,16.36c19.07,0,46.33,14.93,74.83,40.9,31.37,28.42,62.94,69.11,89.18,114.3,30.55,53,51.25,107.15,58.22,152.54,5.95,39.06.62,67.68-14.15,76.07a24.12,24.12,0,0,1-12.51,3.07c-19.07,0-46.33-14.93-74.83-40.9C228.59,333.91,197,293.22,170.78,248c-30.55-53-51.25-107.15-58.22-152.54-5.95-39.06-.62-67.68,14.15-76.07,3.49-2.25,7.59-3.07,12.51-3.07m0-16.36c-7.59,0-14.76,1.64-20.71,5.32C74,30.88,91,143.34,156.43,256.42,212.81,353.75,286.82,420,334.59,420c7.59,0,14.76-1.64,20.71-5.32,44.49-25.56,27.47-138-37.93-251.1C261,66,187.18,0,139.21,0Z"/><path class="cls-1" d="M237,256.83a46.93,46.93,0,1,1,40.85-70.47,46.69,46.69,0,0,1,0,47.09A47.46,47.46,0,0,1,237,256.83Zm0-79.54a33.06,33.06,0,0,0-28.45,16.28,32.66,32.66,0,0,0,0,32.7,33,33,0,0,0,56.87,0,32.38,32.38,0,0,0,0-32.66A33.06,33.06,0,0,0,237,177.28Z"/></g></g></g></svg>