<svg xmlns="http://www.w3.org/2000/svg" viewBox="0 0 474 420" width="474" height="420"><defs><style>.cls-1{fill:#00d8ff;}.cls-2{fill:#fff;}</style></defs><title>Icon5</title><g id="Layer_2" data-name="Layer 2"><g id="Layer_1-2" data-name="Layer 1"><g id="react5"><path class="cls-2" d="M237,133.56c61.3,0,118.71,9.2,161.55,26,36.9,14.52,59,33.34,59,50.31s-22.14,36-59,50.31c-42.85,16.77-100.25,26-161.55,26s-118.7-9.2-161.55-26c-36.9-14.52-59-33.34-59-50.31s22.14-36,59-50.31c42.85-16.57,100.25-26,161.55-26m0-16.36c-130.8,0-237,41.52-237,92.85S106,302.9,237,302.9s237-41.52,237-92.85S367.8,117.2,237,117.2Z"/><path class="cls-2" d="M156.4,163.56C221.85,50.48,311-20.4,355.51,5.24s27.55,138.09-37.89,251.17S163,440.37,118.51,414.73,91,276.64,156.4,163.56Z"/><path class="cls-1" d="M145.15.42c-10-1-19.07.41-26.86,4.91S104.76,16.78,100.66,26Zm31.57,10.23a110.37,110.37,0,0,0-11.48-5.11L95.33,45.82A116.91,116.91,0,0,0,94.1,58.3l82.62-47.65Zm23.78,14.52c-3.08-2.25-6.36-4.5-9.43-6.34l-97.18,56c.21,3.68.41,7.36.82,11.25ZM221,41.53c-2.87-2.45-5.54-4.7-8.2-7l-116,66.67c.62,3.48,1.23,7.16,2.05,10.64Zm18.45,17.59c-2.46-2.66-5.13-5.11-7.59-7.36l-130,74.85c.82,3.48,1.85,6.75,2.67,10.23l134.9-77.72Zm17,18.41c-2.26-2.66-4.72-5.32-7-7.77l-140.64,81c1,3.27,2.05,6.54,3.28,9.82l144.33-83Zm15.79,19.22c-2.26-2.66-4.31-5.52-6.56-8L116.86,174.47c1.23,3.27,2.46,6.34,3.69,9.61L272.26,96.75ZM287,116.38c-2.05-2.86-4.1-5.52-6.15-8.39L126.29,197.17c1.44,3.07,2.67,6.34,4.1,9.41ZM301,136.63c-1.85-2.86-3.69-5.73-5.74-8.59L136.75,219.46c1.44,3.07,3.08,6.14,4.51,9.2Zm12.92,20.86c-1.85-2.86-3.49-5.93-5.33-8.79L147.82,241.14c1.64,3.07,3.28,5.93,4.92,9l161.14-92.65ZM326,178.76c-1.64-3.07-3.28-5.93-4.92-9L160.12,262.41c1.85,2.86,3.49,5.93,5.33,8.79L326,178.76Zm11.28,21.88c-1.44-3.07-3.08-6.14-4.51-9.2L173,283.47c1.85,2.86,3.69,5.73,5.74,8.59Zm10.25,22.29c-1.44-3.07-2.67-6.34-4.1-9.41L187,303.72c2.05,2.86,4.1,5.52,6.15,8.39Zm9.23,22.91c-1.23-3.27-2.46-6.34-3.69-9.61L201.53,323.56c2.26,2.66,4.31,5.52,6.56,8l148.64-85.69Zm8.2,23.52c-1-3.27-2.05-6.54-3.28-9.82L217.32,342.79c2.26,2.66,4.72,5.32,7,7.77Zm4.31,13.91L234.33,361c2.46,2.66,5.13,5.11,7.59,7.36l130-74.85C371.08,290.22,370.06,286.75,369.24,283.27Zm8,35.59c-.62-3.48-1.23-7.16-2.05-10.64L253,378.58c2.87,2.45,5.54,4.7,8.2,7l116-66.67Zm2.87,26.59c-.21-3.68-.41-7.36-.82-11.25L273.49,395.14c3.08,2.25,6.36,4.5,9.43,6.34Zm-1.44,29A116.91,116.91,0,0,0,379.9,362l-82.83,47.65a110.38,110.38,0,0,0,11.48,5.11l70.12-40.29Zm-23.37,40.29c7.79-4.5,13.53-11.45,17.63-20.66l-44.49,25.57C338.69,420.71,347.71,419.28,355.29,414.78Z"/><path d="M217.93,179.37a36.12,36.12,0,1,1-11.69,49.7A35.88,35.88,0,0,1,217.93,179.37Z"/></g></g></g></svg>