<svg xmlns="http://www.w3.org/2000/svg" viewBox="0 0 474 420" width="474" height="420"><defs><style>.cls-1{fill:#00d8ff;}.cls-2{fill:#fff;}</style></defs><title>Icon1</title><g id="Layer_2" data-name="Layer 2"><g id="Layer_1-2" data-name="Layer 1"><g id="react1"><path class="cls-2" d="M237,133.39c61.3,0,118.71,9.2,161.55,26,36.9,14.51,59,33.32,59,50.29s-22.14,36-59,50.29c-42.85,16.76-100.25,26-161.55,26s-118.71-9.2-161.55-26c-36.9-14.51-59-33.32-59-50.29s22.14-36,59-50.29c42.85-16.56,100.25-26,161.55-26M237,117C106.2,117,0,158.54,0,209.85s106,92.81,237,92.81,237-41.5,237-92.81S367.8,117,237,117Z"/><path class="cls-2" d="M317.57,163.45c65.4,113,82.42,225.28,37.93,251C311,440,221.83,369.3,156.43,256.25"/><path class="cls-1" d="M334.59,16.46a24.12,24.12,0,0,1,12.51,3.07c14.76,8.59,20.09,37,14.15,76C354.47,141,333.77,195.13,303,248.08,244.59,348.86,174.88,403.44,139,403.44a24.12,24.12,0,0,1-12.51-3.07c-14.76-8.59-20.09-37-14.15-76,6.77-45.38,27.47-99.56,58.22-152.5,58.43-101,128.14-155.36,164-155.36m0-16.35c-47.77,0-121.78,66-178.16,163.54C91,276.7,74,388.93,118.5,414.68A41.6,41.6,0,0,0,139.21,420C187,420,261,354,317.37,256.46c65.4-113,82.42-225.28,37.93-251C349.35,1.74,342.17.11,334.59.11Z"/><path class="cls-2" d="M357.76,159.77a19.5,19.5,0,0,1-9.64-36.39,20.07,20.07,0,0,1,9.64-2.66,19.23,19.23,0,0,1,16.81,9.81,18.58,18.58,0,0,1,1.85,14.72,19.55,19.55,0,0,1-9,11.86A20.07,20.07,0,0,1,357.76,159.77Z"/><path class="cls-1" d="M357.76,128.08a12.31,12.31,0,0,1,10.66,6.13A12.14,12.14,0,0,1,363.91,151a13.17,13.17,0,0,1-6.15,1.64,12.31,12.31,0,0,1-10.66-6.13,12.14,12.14,0,0,1,4.51-16.76,11.14,11.14,0,0,1,6.15-1.64m0-14.31a27.56,27.56,0,0,0-13.33,3.48,26.18,26.18,0,0,0-12.51,16.15,26.62,26.62,0,0,0,25.83,33.53,27.56,27.56,0,0,0,13.33-3.48,26.18,26.18,0,0,0,12.51-16.15,26.77,26.77,0,0,0-2.67-20.24A27.21,27.21,0,0,0,357.76,113.77Z"/><path class="cls-2" d="M116,298.78A19.23,19.23,0,0,1,99.23,289a18.58,18.58,0,0,1-1.85-14.72,19.55,19.55,0,0,1,9-11.86,20.07,20.07,0,0,1,9.64-2.66,19.35,19.35,0,0,1,9.64,36.18,16.18,16.18,0,0,1-9.64,2.86Z"/><path class="cls-1" d="M116,267.09a12.31,12.31,0,0,1,10.66,6.13A12.14,12.14,0,0,1,122.19,290a13.17,13.17,0,0,1-6.15,1.64,12.31,12.31,0,0,1-10.66-6.13,12.14,12.14,0,0,1,4.51-16.76,13.84,13.84,0,0,1,6.15-1.64m0-14.31a27.56,27.56,0,0,0-13.33,3.48A26.18,26.18,0,0,0,90.21,272.4,26.62,26.62,0,0,0,116,305.93a27.56,27.56,0,0,0,13.33-3.48,26.18,26.18,0,0,0,12.51-16.15A26.62,26.62,0,0,0,116,252.78Z"/><path class="cls-2" d="M317.57,163.45C252.17,50.4,163-20.33,118.5,5.22s-27.47,138,37.93,251l114.19,11.86Z"/><path class="cls-1" d="M247.46,170.4a40.87,40.87,0,1,1-50.23,28.82A40.73,40.73,0,0,1,247.46,170.4Z"/></g></g></g></svg>