<svg xmlns="http://www.w3.org/2000/svg" viewBox="0 0 474 420" width="474" height="420"><defs><style>.cls-1{fill:#00d8ff;}.cls-2{fill:#fff;}</style></defs><title>Icon6</title><g id="Layer_2" data-name="Layer 2"><g id="Layer_1-2" data-name="Layer 1"><g id="react6"><path class="cls-1" d="M9.23,184.28C3.28,192.46,0,201,0,209.84s3.28,17.38,9.23,25.55Zm14.15,65.83a101.2,101.2,0,0,0,10.25,7.36V162.2c-3.69,2.45-7.18,4.91-10.25,7.36Zm34.85-101.2c-3.49,1.64-7,3.27-10.25,4.91V265.65c3.28,1.64,6.77,3.27,10.25,4.91Zm24.4-9.4c-3.49,1.23-7,2.45-10.25,3.68v133.5c3.28,1.23,6.77,2.45,10.25,3.68Zm24.6-7.36c-3.49.82-7,1.84-10.25,2.86V284.66c3.28,1,6.77,1.84,10.25,2.86V132.15Zm24.4-5.52c-3.49.61-7,1.43-10.25,2V290.59c3.28.82,6.77,1.43,10.25,2Zm24.6-4.09c-3.49.41-7,1-10.25,1.64V295.5c3.28.61,6.77,1,10.25,1.64V122.54Zm24.6-2.86c-3.49.41-6.77.61-10.25,1V298.77c3.49.41,6.77.82,10.25,1Zm24.4-1.84-10.25.61V301l10.25.61Zm24.6-.61c-3.49,0-6.77.2-10.25.2v185c3.49,0,6.77.2,10.25.2ZM244,302.45c3.49,0,6.77-.2,10.25-.2v-185c-3.49,0-6.77-.2-10.25-.2Zm34.85-184-10.25-.61v184l10.25-.61V118.45Zm24.6,2.25c-3.49-.41-6.77-.82-10.25-1V300c3.49-.41,6.77-.61,10.25-1V120.7Zm24.4,3.48c-3.28-.61-6.77-1-10.25-1.64V296.93c3.49-.41,7-1,10.25-1.64V124.18Zm24.6,4.7c-3.28-.82-6.77-1.43-10.25-2V293c3.49-.61,7-1.43,10.25-2V128.88Zm24.4,6.13c-3.28-1-6.77-1.84-10.25-2.86V287.52c3.49-.82,7-1.84,10.25-2.86V135Zm24.6,8.18c-3.28-1.23-6.77-2.45-10.25-3.68V280.37c3.49-1.23,7-2.45,10.25-3.68V143.19ZM426,153.82c-3.28-1.64-6.77-3.27-10.25-4.91V270.55c3.49-1.64,7-3.27,10.25-4.91Zm24.4,15.74a101.2,101.2,0,0,0-10.25-7.36v95.27c3.69-2.45,7.18-4.91,10.25-7.36Zm14.35,65.83c5.95-8.18,9.23-16.76,9.23-25.55s-3.28-17.38-9.23-25.55Z"/><path class="cls-2" d="M156.16,163.5C221.61,50.46,310.75-20.39,355.27,5.24s27.55,138-37.89,251.07S162.79,440.2,118.27,414.57,90.72,276.53,156.16,163.5Z"/><path class="cls-2" d="M139.21,16.44c19.07,0,46.33,14.92,74.83,40.89,31.37,28.42,62.94,69.1,89.18,114.28,30.55,52.95,51.25,107.13,58.22,152.51,5.95,39,.62,67.67-14.15,76.05a24.12,24.12,0,0,1-12.51,3.07c-19.07,0-46.33-14.92-74.83-40.89-31.37-28.42-62.94-69.1-89.18-114.28-30.55-52.95-51.25-107.13-58.22-152.51-5.95-39-.62-67.67,14.15-76.05,3.49-2.25,7.59-3.07,12.51-3.07m0-16.36c-7.59,0-14.76,1.64-20.71,5.32C74,31,91,143.39,156.43,256.45,212.81,353.76,286.82,420,334.59,420c7.59,0,14.76-1.64,20.71-5.32,44.49-25.55,27.47-138-37.93-251.05C261,66.12,187.18-.12,139.21.08Z"/><path d="M211.37,184.28a36.19,36.19,0,1,1,0,51.11A36.33,36.33,0,0,1,211.37,184.28Z"/></g></g></g></svg>