<svg xmlns="http://www.w3.org/2000/svg" viewBox="0 0 474 420" width="474" height="420"><defs><style>.cls-1{fill:#00d8ff;}.cls-2{fill:#fff;}.cls-3{fill: #000;}</style></defs><title>Icon2</title><g id="Layer_2" data-name="Layer 2"><g id="Layer_1-2" data-name="Layer 1"><g id="react2"><ellipse class="cls-1" cx="237" cy="209.88" rx="237" ry="92.79"/><path class="cls-1" d="M334.59,16.53a24.12,24.12,0,0,1,12.51,3.07c14.76,8.58,20.09,37,14.15,76C354.47,141,333.77,195.17,303,248.1,244.59,348.87,174.88,403.44,139,403.44a24.12,24.12,0,0,1-12.51-3.07c-14.76-8.58-20.09-37-14.15-76,6.77-45.38,27.47-99.54,58.22-152.48,58.43-101,128.14-155.34,164-155.34m0-16.35c-47.77,0-121.78,66-178.16,163.52C91,276.72,74,388.93,118.5,414.69A41.61,41.61,0,0,0,139.21,420C187,420,261,354,317.37,256.48c65.4-113,82.42-225.24,37.93-251C349.35,1.81,342.17.17,334.59.17Z"/><path class="cls-2" d="M9.23,184.33C3.28,192.51,0,201.09,0,209.88s3.28,17.37,9.23,25.55Zm14.15,65.81a101.2,101.2,0,0,0,10.25,7.36V162.26c-3.69,2.45-7.18,4.91-10.25,7.36ZM58.22,149c-3.49,1.64-7,3.27-10.25,4.91v111.8c3.28,1.64,6.77,3.27,10.25,4.91Zm24.4-9.4c-3.49,1.23-7,2.45-10.25,3.68V276.72c3.28,1.23,6.77,2.45,10.25,3.68Zm24.6-7.36c-3.49.82-7,1.84-10.25,2.86V284.69c3.28,1,6.77,1.84,10.25,2.86V132.21Zm24.4-5.52c-3.49.61-7,1.43-10.25,2V290.62c3.28.82,6.77,1.43,10.25,2Zm24.6-4.09c-3.49.41-7,1-10.25,1.64V295.52c3.28.61,6.77,1,10.25,1.64V122.61Zm24.6-2.86c-3.49.41-6.77.61-10.25,1v178c3.49.41,6.77.82,10.25,1Zm24.4-1.84-10.25.61V301l10.25.61Zm24.6-.61c-3.49,0-6.77.2-10.25.2v185c3.49,0,6.77.2,10.25.2ZM244,302.47c3.49,0,6.77-.2,10.25-.2v-185c-3.49,0-6.77-.2-10.25-.2Zm34.85-184-10.25-.61v184l10.25-.61V118.52Zm24.6,2.25c-3.49-.41-6.77-.82-10.25-1V300c3.49-.41,6.77-.61,10.25-1V120.77Zm24.4,3.47c-3.28-.61-6.77-1-10.25-1.64V297c3.49-.41,7-1,10.25-1.64V124.24Zm24.6,4.7c-3.28-.82-6.77-1.43-10.25-2V293.07c3.49-.61,7-1.43,10.25-2V128.94Zm24.4,6.13c-3.28-1-6.77-1.84-10.25-2.86V287.55c3.49-.82,7-1.84,10.25-2.86V135.07Zm24.6,8.18c-3.28-1.23-6.77-2.45-10.25-3.68V280.4c3.49-1.23,7-2.45,10.25-3.68V143.25ZM426,153.88c-3.28-1.64-6.77-3.27-10.25-4.91V270.59c3.49-1.64,7-3.27,10.25-4.91Zm24.4,15.74a101.2,101.2,0,0,0-10.25-7.36v95.25c3.69-2.45,7.18-4.91,10.25-7.36Zm14.35,65.81c5.95-8.18,9.23-16.76,9.23-25.55s-3.28-17.37-9.23-25.55Z"/><path  class="cls-2" d="M118.56,5.24c44.52-25.62,133.66,45.21,199.11,158.22s82.41,225.39,37.89,251S221.9,369.26,156.46,256.26,74,30.86,118.56,5.24Z"/><path class="cls-3" d="M268.37,191.9A36.16,36.16,0,1,1,219,178.61,35.81,35.81,0,0,1,268.37,191.9Z"/></g></g></g></svg>